<?xml version="1.0" encoding="UTF-8"?>
<svg xmlns="http://www.w3.org/2000/svg" xmlns:xlink="http://www.w3.org/1999/xlink" width="21pt" height="14pt" viewBox="0 0 21 14" version="1.1">
<g id="surface1">
<path style=" stroke:none;fill-rule:nonzero;fill:rgb(0%,0%,0%);fill-opacity:1;" d="M 2.421875 4.691406 L 18.578125 4.691406 L 18.578125 9.308594 L 2.421875 9.308594 Z M 2.421875 4.691406 "/>
<path style=" stroke:none;fill-rule:nonzero;fill:rgb(100%,100%,100%);fill-opacity:1;" d="M 17.851562 8.007812 C 17.820312 8.015625 17.792969 8.019531 17.765625 8.019531 C 17.671875 8.019531 17.628906 7.980469 17.628906 7.863281 L 17.628906 6.984375 C 17.628906 6.523438 17.261719 6.300781 16.824219 6.300781 C 16.492188 6.300781 16.316406 6.339844 15.960938 6.484375 L 15.882812 6.949219 L 16.34375 6.996094 L 16.410156 6.769531 C 16.503906 6.71875 16.597656 6.710938 16.71875 6.710938 C 17.042969 6.710938 17.050781 6.957031 17.050781 7.164062 L 17.050781 7.230469 C 16.945312 7.21875 16.828125 7.210938 16.71875 7.210938 C 16.257812 7.210938 15.777344 7.328125 15.777344 7.828125 C 15.777344 8.246094 16.109375 8.40625 16.398438 8.40625 C 16.726562 8.40625 16.933594 8.207031 17.046875 8 C 17.074219 8.25 17.222656 8.40625 17.492188 8.40625 C 17.617188 8.40625 17.746094 8.371094 17.855469 8.308594 Z M 16.609375 7.992188 C 16.4375 7.992188 16.375 7.890625 16.375 7.757812 C 16.375 7.539062 16.554688 7.480469 16.757812 7.480469 C 16.851562 7.480469 16.957031 7.496094 17.050781 7.507812 C 17.035156 7.84375 16.816406 7.992188 16.609375 7.992188 Z M 15.835938 5.277344 L 14.960938 8.359375 L 14.390625 8.359375 L 15.265625 5.277344 Z M 14.660156 5.277344 L 13.789062 8.359375 L 13.21875 8.359375 L 14.09375 5.277344 Z M 12.234375 6.339844 L 12.839844 6.339844 L 12.839844 7.066406 L 12.234375 7.066406 Z M 12.234375 7.632812 L 12.839844 7.632812 L 12.839844 8.359375 L 12.234375 8.359375 Z M 11.355469 7.609375 L 11.8125 7.652344 L 11.6875 8.359375 L 9.921875 8.359375 L 9.863281 8.054688 L 10.972656 6.777344 L 10.34375 6.777344 L 10.253906 7.09375 L 9.835938 7.046875 L 9.90625 6.339844 L 11.683594 6.339844 L 11.726562 6.644531 L 10.605469 7.921875 L 11.261719 7.921875 Z M 8.457031 6.300781 C 7.734375 6.300781 7.375 6.789062 7.375 7.378906 C 7.375 8.023438 7.804688 8.40625 8.425781 8.40625 C 9.074219 8.40625 9.539062 7.996094 9.539062 7.351562 C 9.539062 6.789062 9.183594 6.300781 8.457031 6.300781 Z M 8.445312 7.960938 C 8.132812 7.960938 7.96875 7.691406 7.96875 7.34375 C 7.96875 6.960938 8.152344 6.742188 8.449219 6.742188 C 8.722656 6.742188 8.941406 6.925781 8.941406 7.332031 C 8.941406 7.71875 8.746094 7.960938 8.445312 7.960938 Z M 6.855469 7.921875 L 7.121094 7.921875 L 7.121094 8.359375 L 6.277344 8.359375 L 6.277344 7.222656 C 6.277344 6.871094 6.160156 6.738281 5.929688 6.738281 C 5.652344 6.738281 5.539062 6.9375 5.539062 7.21875 L 5.539062 7.921875 L 5.808594 7.921875 L 5.808594 8.359375 L 4.964844 8.359375 L 4.964844 7.222656 C 4.964844 6.871094 4.847656 6.738281 4.617188 6.738281 C 4.339844 6.738281 4.226562 6.9375 4.226562 7.21875 L 4.226562 7.921875 L 4.613281 7.921875 L 4.613281 8.359375 L 3.382812 8.359375 L 3.382812 7.921875 L 3.652344 7.921875 L 3.652344 6.777344 L 3.382812 6.777344 L 3.382812 6.339844 L 4.226562 6.339844 L 4.226562 6.644531 C 4.347656 6.429688 4.558594 6.296875 4.84375 6.296875 C 5.132812 6.296875 5.402344 6.4375 5.5 6.734375 C 5.613281 6.464844 5.84375 6.296875 6.160156 6.296875 C 6.523438 6.296875 6.855469 6.519531 6.855469 6.996094 Z M 6.855469 7.921875 "/>
</g>
</svg>
